<?xml version="1.0" encoding="utf-8"?>
<!-- Generator: Adobe Illustrator 26.4.1, SVG Export Plug-In . SVG Version: 6.00 Build 0)  -->
<svg version="1.1" id="레이어_1" xmlns="http://www.w3.org/2000/svg" xmlns:xlink="http://www.w3.org/1999/xlink" x="0px"
	 y="0px" viewBox="0 0 120 120" style="enable-background:new 0 0 120 120;" xml:space="preserve">
<style type="text/css">
	.st0{fill:#3B55E6;}
</style>
<g>
	<g>
		<path class="st0" d="M20.02,92.84h-16c-0.3,0-0.58-0.13-0.77-0.37c-0.19-0.23-0.27-0.54-0.21-0.83l16-80
			c0.09-0.44,0.45-0.76,0.9-0.8c0.46-0.04,0.86,0.22,1.02,0.64l10,26c0.07,0.17,0.08,0.36,0.05,0.54l-10,54
			C20.91,92.5,20.5,92.84,20.02,92.84z M5.24,90.84h13.95l9.8-52.9l-8.66-22.52L5.24,90.84z"/>
	</g>
</g>
<g>
	<g>
		<path class="st0" d="M116.02,92.84h-16c-0.48,0-0.9-0.34-0.98-0.82l-10-54c-0.03-0.18-0.02-0.37,0.05-0.54l10-26
			c0.16-0.41,0.57-0.67,1.02-0.64c0.44,0.04,0.81,0.36,0.9,0.8l16,80c0.06,0.29-0.02,0.6-0.21,0.83
			C116.6,92.71,116.32,92.84,116.02,92.84z M100.85,90.84h13.95L99.71,15.42l-8.66,22.52L100.85,90.84z"/>
	</g>
</g>
<g>
	<g>
		<path class="st0" d="M100.02,118.84h-80c-0.55,0-1-0.45-1-1l10-79.81L19.08,12.2c-0.18-0.48,0.03-1.02,0.49-1.25l16-8
			c0.32-0.16,0.7-0.14,1,0.06l23.45,15.63L83.46,3.01c0.3-0.2,0.68-0.22,1-0.06l16,8c0.46,0.23,0.67,0.77,0.49,1.25l-9.93,25.83
			l10,79.81C101.02,118.39,100.57,118.84,100.02,118.84z M21.02,116.84h78l-10-79c0-0.12,0.02-0.24,0.07-0.36l9.67-25.15L84.09,4.99
			L60.57,20.67c-0.34,0.22-0.77,0.22-1.11,0L35.95,4.99l-14.67,7.33l9.67,25.15c0.04,0.11,0.07,0.24,0.07,0.36L21.02,116.84z"/>
	</g>
</g>
<g>
	<g>
		<path class="st0" d="M60.02,118.84c-0.55,0-1-0.45-1-1v-98c0-0.55,0.45-1,1-1s1,0.45,1,1v98
			C61.02,118.39,60.57,118.84,60.02,118.84z"/>
	</g>
</g>
<path class="st0" d="M68.85,38.91c-2.19,0-3.98-1.78-3.98-3.98s1.78-3.98,3.98-3.98s3.98,1.78,3.98,3.98S71.05,38.91,68.85,38.91z
	 M68.85,32.96c-1.09,0-1.98,0.89-1.98,1.98c0,1.09,0.89,1.98,1.98,1.98c1.09,0,1.98-0.89,1.98-1.98
	C70.83,33.85,69.94,32.96,68.85,32.96z"/>
<path class="st0" d="M68.85,54.61c-2.19,0-3.98-1.78-3.98-3.98s1.78-3.98,3.98-3.98s3.98,1.78,3.98,3.98S71.05,54.61,68.85,54.61z
	 M68.85,48.66c-1.09,0-1.98,0.89-1.98,1.98c0,1.09,0.89,1.98,1.98,1.98c1.09,0,1.98-0.89,1.98-1.98
	C70.83,49.55,69.94,48.66,68.85,48.66z"/>
<path class="st0" d="M68.85,92.31c-2.19,0-3.98-1.78-3.98-3.98s1.78-3.98,3.98-3.98s3.98,1.78,3.98,3.98S71.05,92.31,68.85,92.31z
	 M68.85,86.36c-1.09,0-1.98,0.89-1.98,1.98c0,1.09,0.89,1.98,1.98,1.98c1.09,0,1.98-0.89,1.98-1.98
	C70.83,87.24,69.94,86.36,68.85,86.36z"/>
<path class="st0" d="M68.85,73.01c-2.19,0-3.98-1.78-3.98-3.98s1.78-3.98,3.98-3.98s3.98,1.78,3.98,3.98S71.05,73.01,68.85,73.01z
	 M68.85,67.06c-1.09,0-1.98,0.89-1.98,1.98c0,1.09,0.89,1.98,1.98,1.98c1.09,0,1.98-0.89,1.98-1.98
	C70.83,67.94,69.94,67.06,68.85,67.06z"/>
</svg>
