<?xml version="1.0" encoding="utf-8"?>
<!-- Generator: Adobe Illustrator 26.4.1, SVG Export Plug-In . SVG Version: 6.00 Build 0)  -->
<svg version="1.1" id="레이어_1" xmlns="http://www.w3.org/2000/svg" xmlns:xlink="http://www.w3.org/1999/xlink" x="0px"
	 y="0px" viewBox="0 0 120 120" style="enable-background:new 0 0 120 120;" xml:space="preserve">
<style type="text/css">
	.st0{fill:#3B55E6;}
</style>
<g>
	<g>
		<g>
			<path class="st0" d="M116,33c-0.08,0-0.16-0.01-0.24-0.03c-4.51-1.12-8.8-3.26-12.39-6.2c-2.94-2.4-5.4-5.29-7.32-8.6
				c-0.28-0.48-0.11-1.09,0.36-1.37c0.48-0.28,1.09-0.11,1.37,0.36c1.8,3.1,4.1,5.81,6.86,8.05c3.04,2.48,6.6,4.36,10.37,5.47V12
				c0-0.55,0.45-1,1-1s1,0.45,1,1v20c0,0.31-0.14,0.6-0.38,0.79C116.44,32.93,116.22,33,116,33z"/>
		</g>
	</g>
	<g>
		<g>
			<path class="st0" d="M4,33c-0.22,0-0.44-0.07-0.62-0.21C3.14,32.6,3,32.31,3,32V12c0-0.55,0.45-1,1-1s1,0.45,1,1v18.69
				c3.77-1.11,7.33-2.99,10.37-5.47c2.75-2.25,5.06-4.96,6.86-8.05c0.28-0.48,0.89-0.64,1.37-0.36c0.48,0.28,0.64,0.89,0.36,1.37
				c-1.92,3.3-4.38,6.2-7.32,8.6c-3.59,2.94-7.88,5.08-12.39,6.2C4.16,32.99,4.08,33,4,33z"/>
		</g>
	</g>
	<g>
		<g>
			<path class="st0" d="M60,49c-0.55,0-1-0.45-1-1V20c0-0.55,0.45-1,1-1s1,0.45,1,1v28C61,48.55,60.55,49,60,49z"/>
		</g>
	</g>
	<g>
		<g>
			<path class="st0" d="M88,29c-0.55,0-1-0.45-1-1v-8c0-0.55,0.45-1,1-1s1,0.45,1,1v8C89,28.55,88.55,29,88,29z"/>
		</g>
	</g>
	<g>
		<g>
			<path class="st0" d="M34,29c-0.55,0-1-0.45-1-1v-8c0-0.55,0.45-1,1-1s1,0.45,1,1v8C35,28.55,34.55,29,34,29z"/>
		</g>
	</g>
	<g>
		<g>
			<circle class="st0" cx="50" cy="30" r="2"/>
		</g>
	</g>
	<g>
		<g>
			<path class="st0" d="M78,117c-0.46,0-0.86-0.31-0.97-0.76c-0.11-0.44-11.29-44.74-16.12-66.41c-0.16-0.73-0.79-0.79-0.98-0.79
				c0,0,0,0,0,0c-0.19,0-0.81,0.06-0.97,0.77C54,71.39,43.08,115.79,42.97,116.24C42.86,116.69,42.46,117,42,117
				c-12.78,0-26.71-1.47-38.22-4.02C3.33,112.87,3,112.47,3,112V12c0-0.55,0.45-1,1-1s1,0.45,1,1c0,2.44,18.89,7,55,7s55-4.56,55-7
				c0-0.55,0.45-1,1-1s1,0.45,1,1v100c0,0.47-0.33,0.87-0.78,0.98C104.71,115.53,90.78,117,78,117z M59.93,47.04c0,0,0.01,0,0.01,0
				c1.44,0,2.61,0.95,2.92,2.35c4.47,20.08,14.41,59.64,15.91,65.6c12.14-0.06,25.24-1.43,36.22-3.8V14.61
				C107.38,19.25,79.6,21,60,21s-47.38-1.75-55-6.39v96.59c10.98,2.37,24.08,3.75,36.22,3.8c1.47-5.99,11.2-45.63,15.8-65.63
				C57.33,47.98,58.5,47.04,59.93,47.04z"/>
		</g>
	</g>
	<g>
		<g>
			<path class="st0" d="M60,21c-22.91,0-57-2.4-57-9s34.09-9,57-9s57,2.4,57,9S82.91,21,60,21z M60,5C23.89,5,5,9.56,5,12
				c0,2.44,18.89,7,55,7s55-4.56,55-7C115,9.56,96.11,5,60,5z"/>
		</g>
	</g>
</g>
</svg>
