<?xml version="1.0" encoding="utf-8"?>
<!-- Generator: Adobe Illustrator 26.4.1, SVG Export Plug-In . SVG Version: 6.00 Build 0)  -->
<svg version="1.1" id="레이어_1" xmlns="http://www.w3.org/2000/svg" xmlns:xlink="http://www.w3.org/1999/xlink" x="0px"
	 y="0px" viewBox="0 0 120 120" style="enable-background:new 0 0 120 120;" xml:space="preserve">
<style type="text/css">
	.st0{fill:#3B55E6;}
</style>
<g>
	<g>
		<g>
			<g>
				<path class="st0" d="M116,105h-14c-0.46,0-0.86-0.32-0.97-0.77l-14-58c-0.08-0.32,0.01-0.65,0.22-0.9l16-18
					c0.26-0.29,0.66-0.4,1.03-0.29c0.37,0.11,0.65,0.42,0.71,0.8l12,76c0.05,0.29-0.04,0.58-0.23,0.81
					C116.57,104.87,116.29,105,116,105z M102.79,103h12.04l-11.49-72.75L89.09,46.27L102.79,103z"/>
			</g>
		</g>
	</g>
	<g>
		<g>
			<path class="st0" d="M66,117H54c-0.55,0-1-0.45-1-1V34.92c0-0.39,0.23-0.74,0.58-0.91c0.36-0.16,0.77-0.11,1.07,0.14L60,38.69
				l5.35-4.53c0.3-0.25,0.71-0.31,1.07-0.14c0.35,0.16,0.58,0.52,0.58,0.91V116C67,116.55,66.55,117,66,117z M55,115h10V37.08
				l-4.35,3.68c-0.37,0.32-0.92,0.32-1.29,0L55,37.08V115z"/>
		</g>
	</g>
	<g>
		<g>
			<path class="st0" d="M60,41c-0.23,0-0.46-0.08-0.65-0.24l-26-22c-0.2-0.17-0.33-0.42-0.35-0.68c-0.02-0.27,0.06-0.53,0.24-0.73
				l12-14C45.43,3.13,45.71,3,46,3h28c0.29,0,0.57,0.13,0.76,0.35l12,14c0.17,0.2,0.26,0.47,0.24,0.73
				c-0.02,0.27-0.15,0.51-0.35,0.68l-26,22C60.46,40.92,60.23,41,60,41z M35.41,17.89L60,38.69l24.59-20.8L73.54,5H46.46
				L35.41,17.89z"/>
		</g>
	</g>
	<g>
		<g>
			<path class="st0" d="M60,33c-0.38,0-0.72-0.21-0.89-0.55l-14-28c-0.16-0.31-0.14-0.68,0.04-0.97C45.33,3.18,45.65,3,46,3h28
				c0.35,0,0.67,0.18,0.85,0.47c0.18,0.29,0.2,0.66,0.04,0.97l-14,28C60.72,32.79,60.38,33,60,33z M47.62,5L60,29.76L72.38,5H47.62z
				"/>
		</g>
	</g>
	<g>
		<g>
			<g>
				<path class="st0" d="M18,105H4c-0.29,0-0.57-0.13-0.76-0.35c-0.19-0.22-0.27-0.52-0.23-0.81l12-76c0.06-0.38,0.34-0.7,0.71-0.8
					c0.37-0.11,0.77,0.01,1.03,0.29l16,18c0.22,0.25,0.3,0.58,0.22,0.9l-14,58C18.86,104.68,18.46,105,18,105z M5.17,103h12.04
					l13.69-56.73L16.66,30.25L5.17,103z"/>
			</g>
		</g>
	</g>
	<g>
		<g>
			<circle class="st0" cx="60" cy="52" r="2"/>
		</g>
	</g>
	<g>
		<g>
			<circle class="st0" cx="60" cy="100" r="2"/>
		</g>
	</g>
	<g>
		<g>
			<circle class="st0" cx="60" cy="84" r="2"/>
		</g>
	</g>
	<g>
		<g>
			<circle class="st0" cx="60" cy="68" r="2"/>
		</g>
	</g>
	<g>
		<g>
			<path class="st0" d="M92,103H76c-0.55,0-1-0.45-1-1V86c0-0.55,0.45-1,1-1h16c0.55,0,1,0.45,1,1v16C93,102.55,92.55,103,92,103z
				 M77,101h14V87H77V101z"/>
		</g>
	</g>
	<g>
		<g>
			<path class="st0" d="M92,87H76c-0.55,0-1-0.45-1-1v-8c0-0.55,0.45-1,1-1h16c0.55,0,1,0.45,1,1v8C93,86.55,92.55,87,92,87z M77,85
				h14v-6H77V85z"/>
		</g>
	</g>
	<g>
		<g>
			<path class="st0" d="M74,53c-0.55,0-1-0.45-1-1V28c0-0.55,0.45-1,1-1s1,0.45,1,1v24C75,52.55,74.55,53,74,53z"/>
		</g>
	</g>
	<g>
		<g>
			<path class="st0" d="M46,53c-0.55,0-1-0.45-1-1V28c0-0.55,0.45-1,1-1s1,0.45,1,1v24C47,52.55,46.55,53,46,53z"/>
		</g>
	</g>
	<g>
		<g>
			<path class="st0" d="M60,13H50c-0.55,0-1-0.45-1-1c0-0.55,0.45-1,1-1h10c0.55,0,1,0.45,1,1C61,12.55,60.55,13,60,13z"/>
		</g>
	</g>
	<g>
		<g>
			<path class="st0" d="M114,97h-12c-0.55,0-1-0.45-1-1c0-0.55,0.45-1,1-1h12c0.55,0,1,0.45,1,1C115,96.55,114.55,97,114,97z"/>
		</g>
	</g>
	<g>
		<g>
			<path class="st0" d="M18,97H6c-0.55,0-1-0.45-1-1c0-0.55,0.45-1,1-1h12c0.55,0,1,0.45,1,1C19,96.55,18.55,97,18,97z"/>
		</g>
	</g>
	<g>
		<g>
			<path class="st0" d="M88,117H32c-0.55,0-1-0.45-1-1v-14c0-0.55,0.45-1,1-1h11V79H32c-0.55,0-1-0.45-1-1V46.38L15.25,28.66
				c-0.2-0.23-0.29-0.53-0.24-0.83c0.05-0.3,0.23-0.56,0.5-0.71l18-10c0.36-0.2,0.81-0.16,1.13,0.11L60,38.69l25.35-21.45
				c0.32-0.27,0.77-0.31,1.13-0.11l18,10c0.27,0.15,0.45,0.41,0.5,0.71c0.05,0.3-0.04,0.61-0.24,0.83L89,46.38V78c0,0.55-0.45,1-1,1
				H77v22h11c0.55,0,1,0.45,1,1v14C89,116.55,88.55,117,88,117z M33,115h54v-12H76c-0.55,0-1-0.45-1-1V78c0-0.55,0.45-1,1-1h11V46
				c0-0.25,0.09-0.48,0.25-0.66l15.17-17.07l-16.31-9.06L60.65,40.76c-0.37,0.32-0.92,0.32-1.29,0L33.88,19.21l-16.31,9.06
				l15.17,17.07C32.91,45.52,33,45.75,33,46v31h11c0.55,0,1,0.45,1,1v24c0,0.55-0.45,1-1,1H33V115z"/>
		</g>
	</g>
	<g>
		<g>
			<path class="st0" d="M44,103H28c-0.55,0-1-0.45-1-1V86c0-0.55,0.45-1,1-1h16c0.55,0,1,0.45,1,1v16C45,102.55,44.55,103,44,103z
				 M29,101h14V87H29V101z"/>
		</g>
	</g>
	<g>
		<g>
			<path class="st0" d="M44,87H28c-0.55,0-1-0.45-1-1v-8c0-0.55,0.45-1,1-1h16c0.55,0,1,0.45,1,1v8C45,86.55,44.55,87,44,87z M29,85
				h14v-6H29V85z"/>
		</g>
	</g>
</g>
</svg>
