<?xml version="1.0" encoding="utf-8"?>
<!-- Generator: Adobe Illustrator 26.4.1, SVG Export Plug-In . SVG Version: 6.00 Build 0)  -->
<svg version="1.1" id="레이어_1" xmlns="http://www.w3.org/2000/svg" xmlns:xlink="http://www.w3.org/1999/xlink" x="0px"
	 y="0px" viewBox="0 0 120 120" style="enable-background:new 0 0 120 120;" xml:space="preserve">
<style type="text/css">
	.st0{fill:#3B55E6;}
</style>
<g>
	<g>
		<path class="st0" d="M91.03,113.45c-3.28,0-6.56-0.92-9.42-2.75l-2.73-1.75l-11.55,3.71c-0.36,0.11-0.74,0.02-1.01-0.24
			c-0.26-0.26-0.36-0.65-0.25-1.01l6-19.26c0.13-0.42,0.52-0.7,0.96-0.7h34c0.4,0,0.77,0.24,0.92,0.62l8,19.26
			c0.15,0.36,0.08,0.77-0.19,1.06c-0.26,0.29-0.67,0.4-1.04,0.28l-11.55-3.71l-2.73,1.75C97.59,112.53,94.31,113.45,91.03,113.45z
			 M79.03,106.85c0.19,0,0.38,0.05,0.54,0.16l3.12,2.01c5.06,3.25,11.61,3.25,16.67,0l3.12-2.01c0.25-0.16,0.56-0.2,0.85-0.11
			l9.94,3.19l-6.91-16.64h-32.6l-5.21,16.72l10.17-3.26C78.82,106.86,78.93,106.85,79.03,106.85z"/>
	</g>
	<g>
		<path class="st0" d="M48.94,29.44h-34c-0.4,0-0.77-0.24-0.92-0.62l-8-19.26C5.86,9.21,5.94,8.79,6.2,8.51
			c0.27-0.29,0.67-0.39,1.04-0.28l11.55,3.71l2.73-1.75c5.72-3.67,13.11-3.67,18.83,0l2.73,1.75l11.55-3.71
			c0.36-0.11,0.74-0.02,1.01,0.24C55.9,8.74,56,9.13,55.89,9.48l-6,19.26C49.76,29.16,49.37,29.44,48.94,29.44z M15.6,27.44h32.6
			l5.21-16.72l-10.17,3.26c-0.28,0.09-0.59,0.05-0.85-0.11l-3.12-2.01c-5.06-3.25-11.61-3.25-16.67,0l-3.12,2.01
			c-0.25,0.16-0.56,0.2-0.85,0.11L8.69,10.8L15.6,27.44z"/>
	</g>
	<g>
		<path class="st0" d="M36.94,117.44c-3.86,0-7-3.14-7-7v-1.11c-1.27,1.3-3.04,2.11-5,2.11c-3.86,0-7-3.14-7-7v-3.11
			c-1.27,1.3-3.04,2.11-5,2.11c-3.86,0-7-3.14-7-7V59.37c0-5.99,0.54-12.01,1.61-17.89c0.02-0.09,0.04-0.18,0.08-0.26l6.4-13.21
			c0.17-0.34,0.52-0.56,0.9-0.56h33.99c0.04,0,0.07,0,0.11,0h0c0,0,0,0,0,0c0.03,0,0.06,0.01,0.09,0.01c0,0,0,0,0,0c0,0,0,0,0,0
			c0.23,0.04,0.45,0.17,0.6,0.37l0,0c0,0,0,0,0,0c0,0,0,0,0,0c0,0,0,0,0,0l22.46,29.9c1.28,1.4,1.93,3.23,1.83,5.15
			c-0.1,1.93-0.95,3.68-2.39,4.95c-2.73,2.39-7.07,2.05-9.67-0.76l-6.03-6.25v43.62c0,3.86-3.14,7-7,7c-1.96,0-3.73-0.81-5-2.11
			v1.11C43.94,114.3,40.8,117.44,36.94,117.44z M31.94,104.44v6c0,2.76,2.24,5,5,5c2.76,0,5-2.24,5-5v-38c0-0.55,0.45-1,1-1
			c0.55,0,1,0.45,1,1v32c0,2.76,2.24,5,5,5c2.76,0,5-2.24,5-5v-46c0-0.41,0.25-0.82,0.62-0.98c0.38-0.15,0.81-0.11,1.09,0.18
			c0,0,0.1,0.11,0.11,0.11l7.66,7.95c1.88,2.03,4.97,2.31,6.9,0.63c1.03-0.9,1.64-2.16,1.71-3.54c0.07-1.39-0.4-2.71-1.33-3.72
			c-0.02-0.03-0.05-0.05-0.07-0.08L48.44,29.44H15.56L9.49,41.97c-1.03,5.73-1.56,11.58-1.56,17.4v37.07c0,2.76,2.24,5,5,5
			c2.76,0,5-2.24,5-5v-24c0-0.55,0.45-1,1-1c0.55,0,1,0.45,1,1v32c0,2.76,2.24,5,5,5c2.76,0,5-2.24,5-5v-32c0-0.55,0.45-1,1-1
			c0.55,0,1,0.45,1,1V104.44z"/>
	</g>
	<g>
		<path class="st0" d="M107.03,93.44h-34c-0.31,0-0.61-0.15-0.8-0.4l-18.09-24.1c-0.33-0.44-0.24-1.07,0.2-1.4
			c0.44-0.33,1.07-0.24,1.4,0.2l17.79,23.7h32.87l6.07-12.53c1.03-5.73,1.56-11.58,1.56-17.4V24.44c0-2.76-2.24-5-5-5
			c-2.76,0-5,2.24-5,5v24c0,0.55-0.45,1-1,1c-0.55,0-1-0.45-1-1v-32c0-2.76-2.24-5-5-5c-2.76,0-5,2.24-5,5v32c0,0.55-0.45,1-1,1
			c-0.55,0-1-0.45-1-1v-38c0-2.76-2.24-5-5-5c-2.76,0-5,2.24-5,5v38c0,0.55-0.45,1-1,1c-0.55,0-1-0.45-1-1v-32c0-2.76-2.24-5-5-5
			c-2.76,0-5,2.24-5,5v36c0,0.55-0.45,1-1,1c-0.55,0-1-0.45-1-1v-36c0-3.86,3.14-7,7-7c1.96,0,3.73,0.81,5,2.11v-1.11
			c0-3.86,3.14-7,7-7c3.86,0,7,3.14,7,7v1.11c1.27-1.3,3.04-2.11,5-2.11c3.86,0,7,3.14,7,7v3.11c1.27-1.3,3.04-2.11,5-2.11
			c3.86,0,7,3.14,7,7v37.07c0,5.99-0.54,12.01-1.61,17.89c-0.02,0.09-0.04,0.18-0.08,0.26l-6.4,13.21
			C107.76,93.22,107.41,93.44,107.03,93.44z"/>
	</g>
</g>
</svg>
