<?xml version="1.0" encoding="utf-8"?>
<!-- Generator: Adobe Illustrator 26.4.1, SVG Export Plug-In . SVG Version: 6.00 Build 0)  -->
<svg version="1.1" id="레이어_1" xmlns="http://www.w3.org/2000/svg" xmlns:xlink="http://www.w3.org/1999/xlink" x="0px"
	 y="0px" viewBox="0 0 120 120" style="enable-background:new 0 0 120 120;" xml:space="preserve">
<style type="text/css">
	.st0{fill:#3B55E6;}
</style>
<g>
	<g>
		<g>
			<path class="st0" d="M86,117H34c-0.55,0-1-0.45-1-1V64c0-0.55,0.45-1,1-1s1,0.45,1,1v51h50V64c0-0.55,0.45-1,1-1s1,0.45,1,1v52
				C87,116.55,86.55,117,86,117z"/>
		</g>
	</g>
	<g>
		<g>
			<path class="st0" d="M106,117H94.76c-0.48,0-0.89-0.34-0.98-0.8l-8.76-44c-0.11-0.54,0.24-1.07,0.79-1.18
				c0.55-0.11,1.07,0.24,1.18,0.79l8.6,43.2h9.35l-3.61-56.94c0-9.61-6.96-13.64-13.11-17.2c-3.03-1.69-6.15-3.13-9.29-4.31
				c-0.31,0.48-0.61,0.91-0.91,1.3L60.8,60.6c-0.38,0.5-1.22,0.5-1.59,0L41.98,37.86c-0.3-0.4-0.6-0.83-0.91-1.3
				c-3.14,1.17-6.26,2.62-9.3,4.31C26.1,43.37,18.68,47.81,18.68,58l-3.61,57h9.16l8.8-43.2c0.11-0.54,0.64-0.89,1.18-0.78
				c0.54,0.11,0.89,0.64,0.78,1.18l-8.96,44c-0.09,0.47-0.5,0.8-0.98,0.8H14c-0.28,0-0.54-0.11-0.73-0.32
				c-0.19-0.2-0.29-0.47-0.27-0.75l3.68-58c0-11.29,8.1-16.17,14.2-18.85c3.29-1.84,6.78-3.43,10.27-4.68
				c0.45-0.16,0.95,0.01,1.19,0.42c0.43,0.71,0.83,1.31,1.23,1.83L60,58.34l16.43-21.69c0.4-0.53,0.8-1.12,1.23-1.83
				c0.25-0.41,0.75-0.58,1.19-0.42c3.49,1.25,6.98,2.84,10.35,4.73c6.3,3.65,14.12,8.18,14.12,18.87l3.68,57.94
				c0.02,0.28-0.08,0.55-0.27,0.75C106.54,116.89,106.28,117,106,117z"/>
		</g>
	</g>
	<g>
		<g>
			<path class="st0" d="M60,61c-0.39,0-0.75-0.23-0.91-0.59L46.25,31.59c-1.87-4.69-1.29-9.95,1.52-14.11
				c2.77-4.1,7.16-6.46,12.04-6.48l0,0h0.38c4.88,0.02,9.27,2.38,12.04,6.48c2.81,4.16,3.38,9.42,1.53,14.07L60.91,60.41
				C60.75,60.77,60.39,61,60,61z M59.82,13c-4.21,0.02-8,2.06-10.39,5.6c-2.44,3.61-2.94,8.18-1.33,12.21L60,57.54l11.92-26.76
				c1.59-4,1.09-8.56-1.35-12.18c-2.39-3.54-6.18-5.58-10.39-5.6H59.82z"/>
		</g>
	</g>
	<g>
		<g>
			<path class="st0" d="M60,117c-0.55,0-1-0.45-1-1V58c0-0.55,0.45-1,1-1s1,0.45,1,1v58C61,116.55,60.55,117,60,117z"/>
		</g>
	</g>
	<g>
		<g>
			<path class="st0" d="M86,105c-0.1,0-0.21-0.02-0.32-0.05l-12-4c-0.52-0.17-0.81-0.74-0.63-1.27c0.17-0.52,0.74-0.81,1.26-0.63
				l12,4c0.52,0.17,0.81,0.74,0.63,1.27C86.81,104.74,86.42,105,86,105z"/>
		</g>
	</g>
	<g>
		<g>
			<path class="st0" d="M34,105c-0.42,0-0.81-0.27-0.95-0.68c-0.17-0.52,0.11-1.09,0.63-1.27l12-4c0.53-0.18,1.09,0.11,1.26,0.63
				c0.17,0.52-0.11,1.09-0.63,1.27l-12,4C34.21,104.98,34.1,105,34,105z"/>
		</g>
	</g>
	<g>
		<g>
			<g>
				<path class="st0" d="M60,5C60,5,60,5,60,5c-0.56,0-1.06-0.45-1.06-1c0-0.54,0.48-0.97,1.01-1v0l0,0c0.03,0,0.06,0,0.09,0l0,0v0
					c0.53,0.02,1.01,0.46,1.01,1c0,0.54-0.48,0.98-1.01,1v0v0C60.03,5,60.02,5,60,5z M60,4 M60,4 M60,4l0-1L60,4z"/>
			</g>
		</g>
		<g>
			<g>
				<path class="st0" d="M60,61c-0.31,0-0.61-0.15-0.8-0.4L41.98,37.86c-5.27-6.96-6.21-16.15-2.39-23.41C41.83,10.17,47.47,3,60,3
					s18.17,7.17,20.42,11.45c3.81,7.27,2.88,16.46-2.39,23.41L60.8,60.6C60.61,60.85,60.31,61,60,61z M60,5
					c-11.48,0-16.61,6.5-18.64,10.38c-3.46,6.58-2.59,14.93,2.22,21.28L60,58.34l16.43-21.69c4.8-6.34,5.67-14.69,2.22-21.28
					C76.61,11.5,71.48,5,60,5z"/>
			</g>
		</g>
	</g>
</g>
</svg>
