<?xml version="1.0" encoding="utf-8"?>
<!-- Generator: Adobe Illustrator 26.4.1, SVG Export Plug-In . SVG Version: 6.00 Build 0)  -->
<svg version="1.1" id="레이어_1" xmlns="http://www.w3.org/2000/svg" xmlns:xlink="http://www.w3.org/1999/xlink" x="0px"
	 y="0px" viewBox="0 0 120 120" style="enable-background:new 0 0 120 120;" xml:space="preserve">
<style type="text/css">
	.st0{fill:#3B55E6;}
</style>
<g>
	<path class="st0" d="M55.7,108.06c-0.55,0-1-0.45-1-1V65.37c0-0.55,0.45-1,1-1s1,0.45,1,1v41.69
		C56.7,107.62,56.25,108.06,55.7,108.06z"/>
	<path class="st0" d="M55.7,66.16c-0.26,0-0.51-0.1-0.71-0.29c-0.31-0.31-0.38-0.79-0.18-1.18l28.24-53.22
		c0.22-0.41,0.69-0.62,1.15-0.5c0.45,0.12,0.76,0.54,0.74,1.01L83.8,38.67c-0.02,0.54-0.46,0.96-1,0.96h-7.07l4.35,12.67
		c0.16,0.46-0.04,0.97-0.47,1.21L56.17,66.04C56.02,66.12,55.86,66.16,55.7,66.16z M82.75,16.31L58.12,62.73l19.79-10.59
		l-4.52-13.18c-0.1-0.3-0.06-0.64,0.13-0.91c0.19-0.26,0.49-0.42,0.81-0.42h7.51L82.75,16.31z"/>
	<path class="st0" d="M57.51,62.75c-0.16,0-0.32-0.04-0.47-0.12l-16.66-8.91c-0.43-0.23-0.63-0.74-0.47-1.21l4.35-12.66h-7.07
		c-0.54,0-0.98-0.42-1-0.96l-1.13-26.69c-0.02-0.47,0.29-0.88,0.74-1.01c0.45-0.12,0.93,0.08,1.15,0.5l23.95,45.14
		c0.26,0.49,0.07,1.09-0.41,1.35c-0.49,0.26-1.09,0.07-1.35-0.42L37.24,16.52l0.9,21.33h7.51c0.32,0,0.63,0.16,0.81,0.42
		c0.19,0.26,0.24,0.6,0.13,0.91l-4.52,13.18l15.91,8.51c0.49,0.26,0.67,0.87,0.41,1.35C58.21,62.56,57.86,62.75,57.51,62.75z"/>
	<g>
		<g>
			<g>
				<path class="st0" d="M20,101.06H4c-0.3,0-0.58-0.13-0.77-0.37c-0.19-0.23-0.27-0.54-0.21-0.83l16-80
					c0.09-0.44,0.45-0.76,0.9-0.8c0.46-0.04,0.86,0.22,1.02,0.64l10,26c0.07,0.17,0.08,0.36,0.05,0.54l-10,54
					C20.9,100.72,20.48,101.06,20,101.06z M5.22,99.06h13.95l9.8-52.9L20.3,23.64L5.22,99.06z"/>
			</g>
		</g>
		<g>
			<path class="st0" d="M116,101.06h-16c-0.48,0-0.9-0.34-0.98-0.82l-10-54c-0.03-0.18-0.02-0.37,0.05-0.54l10-26
				c0.16-0.41,0.57-0.67,1.02-0.64c0.44,0.04,0.81,0.36,0.9,0.8l16,80c0.06,0.29-0.02,0.6-0.21,0.83
				C116.58,100.93,116.3,101.06,116,101.06z M100.83,99.06h13.95L99.7,23.64l-8.66,22.52L100.83,99.06z"/>
		</g>
		<g>
			<path class="st0" d="M90,109.06H30c-0.55,0-1-0.45-1-1V46.25l-9.93-25.83c-0.18-0.48,0.03-1.02,0.49-1.25l16-8
				c0.32-0.16,0.7-0.14,1,0.06L60,56.15l23.45-44.92c0.3-0.2,0.68-0.22,1-0.06l16,8c0.46,0.23,0.67,0.77,0.49,1.25L91,46.25v61.81
				C91,108.62,90.55,109.06,90,109.06z M31,107.06h58v-61c0-0.12,0.02-0.24,0.07-0.36l9.67-25.15l-14.67-7.33L60.55,58.19
				c-0.34,0.22-0.77,0.22-1.11,0L35.93,13.22l-14.67,7.33l9.67,25.15c0.04,0.11,0.07,0.24,0.07,0.36V107.06z"/>
		</g>
	</g>
</g>
</svg>
