<?xml version="1.0" encoding="utf-8"?>
<!-- Generator: Adobe Illustrator 26.4.1, SVG Export Plug-In . SVG Version: 6.00 Build 0)  -->
<svg version="1.1" id="레이어_1" xmlns="http://www.w3.org/2000/svg" xmlns:xlink="http://www.w3.org/1999/xlink" x="0px"
	 y="0px" viewBox="0 0 120 120" style="enable-background:new 0 0 120 120;" xml:space="preserve">
<style type="text/css">
	.st0{fill:#3B55E6;}
</style>
<g>
	<g>
		<path class="st0" d="M92.07,32.79c-0.54,0-0.99-0.43-1-0.98l-0.02-1c-0.01-0.55,0.42-1.01,0.98-1.02
			c0.54-0.01,1.01,0.42,1.02,0.98l0.02,1c0.01,0.55-0.42,1.01-0.98,1.02C92.09,32.79,92.08,32.79,92.07,32.79z"/>
		<path class="st0" d="M93.82,107.8c-0.54,0-0.99-0.43-1-0.98l-0.05-1.95c-0.01-0.55,0.42-1.01,0.98-1.02
			c0.53-0.02,1.01,0.42,1.02,0.98l0.05,1.95c0.01,0.55-0.42,1.01-0.98,1.02C93.83,107.8,93.82,107.8,93.82,107.8z M93.66,100.98
			c-0.54,0-0.99-0.43-1-0.98l-0.05-1.95c-0.01-0.55,0.42-1.01,0.98-1.02c0.55,0,1.01,0.42,1.02,0.98l0.05,1.95
			c0.01,0.55-0.42,1.01-0.98,1.02C93.67,100.98,93.67,100.98,93.66,100.98z M93.5,94.16c-0.54,0-0.99-0.43-1-0.98l-0.05-1.95
			c-0.01-0.55,0.42-1.01,0.98-1.02c0.54-0.01,1.01,0.42,1.02,0.98l0.05,1.95c0.01,0.55-0.42,1.01-0.98,1.02
			C93.51,94.16,93.51,94.16,93.5,94.16z M93.34,87.34c-0.54,0-0.99-0.43-1-0.98l-0.05-1.95c-0.01-0.55,0.42-1.01,0.98-1.02
			c0.56-0.03,1.01,0.42,1.02,0.98l0.05,1.95c0.01,0.55-0.42,1.01-0.98,1.02C93.36,87.34,93.35,87.34,93.34,87.34z M93.18,80.52
			c-0.54,0-0.99-0.43-1-0.98l-0.04-1.95c-0.01-0.55,0.42-1.01,0.98-1.02c0.55,0,1.01,0.42,1.02,0.98l0.04,1.95
			c0.01,0.55-0.42,1.01-0.98,1.02C93.2,80.52,93.19,80.52,93.18,80.52z M93.02,73.7c-0.54,0-0.99-0.43-1-0.98l-0.04-1.95
			c-0.01-0.55,0.42-1.01,0.98-1.02c0.53-0.02,1.01,0.42,1.02,0.98l0.04,1.95c0.01,0.55-0.42,1.01-0.98,1.02
			C93.04,73.7,93.03,73.7,93.02,73.7z M92.86,66.88c-0.54,0-0.99-0.43-1-0.98l-0.05-1.95c-0.01-0.55,0.42-1.01,0.98-1.02
			c0.56,0,1.01,0.42,1.02,0.98l0.05,1.95c0.01,0.55-0.42,1.01-0.98,1.02C92.88,66.88,92.87,66.88,92.86,66.88z M92.7,60.06
			c-0.54,0-0.99-0.43-1-0.98l-0.05-1.95c-0.01-0.55,0.42-1.01,0.98-1.02c0.54-0.01,1.01,0.42,1.02,0.98l0.05,1.95
			c0.01,0.55-0.42,1.01-0.98,1.02C92.72,60.06,92.71,60.06,92.7,60.06z M92.55,53.24c-0.54,0-0.99-0.43-1-0.98l-0.05-1.95
			c-0.01-0.55,0.42-1.01,0.98-1.02c0.56-0.02,1.01,0.42,1.02,0.98l0.05,1.95c0.01,0.55-0.42,1.01-0.98,1.02
			C92.56,53.24,92.55,53.24,92.55,53.24z M92.39,46.43c-0.54,0-0.99-0.43-1-0.98l-0.05-1.95c-0.01-0.55,0.42-1.01,0.98-1.02
			c0.55,0,1.01,0.42,1.02,0.98l0.05,1.95c0.01,0.55-0.42,1.01-0.98,1.02C92.4,46.43,92.4,46.43,92.39,46.43z M92.23,39.61
			c-0.54,0-0.99-0.43-1-0.98l-0.05-1.95c-0.01-0.55,0.42-1.01,0.98-1.02c0.54-0.01,1.01,0.42,1.02,0.98l0.05,1.95
			c0.01,0.55-0.42,1.01-0.98,1.02C92.24,39.61,92.24,39.61,92.23,39.61z"/>
		<path class="st0" d="M93.95,113.67c-0.54,0-0.99-0.43-1-0.98l-0.02-1c-0.01-0.55,0.42-1.01,0.98-1.02
			c0.54-0.01,1.01,0.42,1.02,0.98l0.02,1c0.01,0.55-0.42,1.01-0.98,1.02C93.97,113.67,93.96,113.67,93.95,113.67z"/>
	</g>
	<g>
		<path class="st0" d="M27.93,32.79c-0.01,0-0.02,0-0.02,0c-0.55-0.01-0.99-0.47-0.98-1.02l0.02-1c0.01-0.55,0.48-0.99,1.02-0.98
			c0.55,0.01,0.99,0.47,0.98,1.02l-0.02,1C28.92,32.35,28.47,32.79,27.93,32.79z"/>
		<path class="st0" d="M26.18,107.8c-0.01,0-0.02,0-0.02,0c-0.55-0.01-0.99-0.47-0.98-1.02l0.05-1.95c0.01-0.54,0.46-0.98,1-0.98
			c0.01,0,0.02,0,0.02,0c0.55,0.01,0.99,0.47,0.98,1.02l-0.05,1.95C27.17,107.37,26.73,107.8,26.18,107.8z M26.34,100.98
			c-0.01,0-0.02,0-0.02,0c-0.55-0.01-0.99-0.47-0.98-1.02l0.05-1.95c0.01-0.55,0.43-0.98,1.02-0.98c0.55,0.01,0.99,0.47,0.98,1.02
			L27.34,100C27.33,100.55,26.88,100.98,26.34,100.98z M26.5,94.16c-0.01,0-0.02,0-0.02,0c-0.55-0.01-0.99-0.47-0.98-1.02l0.05-1.95
			c0.01-0.55,0.44-0.99,1.02-0.98c0.55,0.01,0.99,0.47,0.98,1.02l-0.05,1.95C27.49,93.73,27.04,94.16,26.5,94.16z M26.66,87.34
			c-0.01,0-0.02,0-0.02,0c-0.55-0.01-0.99-0.47-0.98-1.02l0.05-1.95c0.01-0.55,0.42-1,1.02-0.98c0.55,0.01,0.99,0.47,0.98,1.02
			l-0.05,1.95C27.65,86.91,27.2,87.34,26.66,87.34z M26.82,80.52c-0.01,0-0.02,0-0.02,0c-0.55-0.01-0.99-0.47-0.98-1.02l0.05-1.95
			c0.01-0.55,0.44-0.98,1.02-0.98c0.55,0.01,0.99,0.47,0.98,1.02l-0.05,1.95C27.81,80.09,27.36,80.52,26.82,80.52z M26.98,73.7
			c-0.01,0-0.02,0-0.02,0c-0.55-0.01-0.99-0.47-0.98-1.02l0.05-1.95c0.01-0.54,0.46-0.98,1-0.98c0.01,0,0.02,0,0.02,0
			c0.55,0.01,0.99,0.47,0.98,1.02l-0.05,1.95C27.96,73.27,27.52,73.7,26.98,73.7z M27.14,66.88c-0.01,0-0.02,0-0.02,0
			c-0.55-0.01-0.99-0.47-0.98-1.02l0.05-1.95c0.01-0.55,0.43-0.97,1.02-0.98c0.55,0.01,0.99,0.47,0.98,1.02l-0.05,1.95
			C28.12,66.45,27.68,66.88,27.14,66.88z M27.3,60.06c-0.01,0-0.02,0-0.02,0c-0.55-0.01-0.99-0.47-0.98-1.02l0.05-1.95
			c0.01-0.55,0.44-0.99,1.02-0.98c0.55,0.01,0.99,0.47,0.98,1.02l-0.05,1.95C28.28,59.63,27.84,60.06,27.3,60.06z M27.45,53.24
			c-0.01,0-0.02,0-0.02,0c-0.55-0.01-0.99-0.47-0.98-1.02l0.05-1.95c0.01-0.54,0.46-0.98,1-0.98c0.01,0,0.02,0,0.02,0
			c0.55,0.01,0.99,0.47,0.98,1.02l-0.05,1.95C28.44,52.81,28,53.24,27.45,53.24z M27.61,46.43c-0.01,0-0.02,0-0.02,0
			c-0.55-0.01-0.99-0.47-0.98-1.02l0.05-1.95c0.01-0.55,0.43-0.98,1.02-0.98c0.55,0.01,0.99,0.47,0.98,1.02l-0.05,1.95
			C28.6,45.99,28.15,46.43,27.61,46.43z M27.77,39.61c-0.01,0-0.02,0-0.02,0c-0.55-0.01-0.99-0.47-0.98-1.02l0.05-1.95
			c0.01-0.55,0.44-0.99,1.02-0.98c0.55,0.01,0.99,0.47,0.98,1.02l-0.05,1.95C28.76,39.17,28.31,39.61,27.77,39.61z"/>
		<path class="st0" d="M26.05,113.67c-0.01,0-0.02,0-0.02,0c-0.55-0.01-0.99-0.47-0.98-1.02l0.02-1c0.01-0.55,0.47-0.98,1.02-0.98
			c0.55,0.01,0.99,0.47,0.98,1.02l-0.02,1C27.03,113.24,26.59,113.67,26.05,113.67z"/>
	</g>
	<g>
		<g>
			<g>
				<path class="st0" d="M94,17H26c-0.55,0-1-0.45-1-1V4c0-0.55,0.45-1,1-1h68c0.55,0,1,0.45,1,1v12C95,16.55,94.55,17,94,17z
					 M27,15h66V5H27V15z"/>
			</g>
		</g>
		<g>
			<g>
				<path class="st0" d="M60,17c-0.55,0-1-0.45-1-1V4c0-0.55,0.45-1,1-1s1,0.45,1,1v12C61,16.55,60.55,17,60,17z"/>
			</g>
		</g>
		<g>
			<g>
				<path class="st0" d="M44,17c-0.55,0-1-0.45-1-1V4c0-0.55,0.45-1,1-1s1,0.45,1,1v12C45,16.55,44.55,17,44,17z"/>
			</g>
		</g>
		<g>
			<g>
				<path class="st0" d="M78,17c-0.55,0-1-0.45-1-1V4c0-0.55,0.45-1,1-1s1,0.45,1,1v12C79,16.55,78.55,17,78,17z"/>
			</g>
		</g>
		<g>
			<g>
				<path class="st0" d="M98,117H74c-0.48,0-0.89-0.34-0.98-0.81L60,49.24l-13.02,66.95c-0.09,0.47-0.5,0.81-0.98,0.81H22
					c-0.27,0-0.53-0.11-0.71-0.3c-0.19-0.19-0.29-0.45-0.29-0.72l2-88.02c0-0.05,0.01-0.09,0.01-0.14l2-11.98
					C25.09,15.35,25.51,15,26,15h68c0.49,0,0.91,0.35,0.99,0.84l2,11.98c0.01,0.05,0.01,0.09,0.01,0.14l2,88.02
					c0.01,0.27-0.1,0.53-0.29,0.72C98.53,116.89,98.27,117,98,117z M74.82,115h22.15L95,28.07L93.15,17H26.85L25,28.07L23.02,115
					h22.15l13.84-71.19C59.11,43.34,59.52,43,60,43s0.89,0.34,0.98,0.81L74.82,115z"/>
			</g>
		</g>
		<g>
			<g>
				<path class="st0" d="M96,28.99c-0.01,0-0.03,0-0.04,0c-6.92-0.26-14.96-6-14.96-13c0-0.55,0.45-1,1-1h12
					c0.49,0,0.91,0.35,0.99,0.84l2,12c0.05,0.3-0.04,0.6-0.24,0.83C96.56,28.87,96.29,28.99,96,28.99z M83.07,16.99
					c0.7,4.99,6.46,9.14,11.73,9.89l-1.65-9.89H83.07z"/>
			</g>
		</g>
		<g>
			<g>
				<path class="st0" d="M24,28.99c-0.29,0-0.56-0.12-0.75-0.34c-0.2-0.23-0.29-0.53-0.24-0.83l2-12c0.08-0.48,0.5-0.84,0.99-0.84
					h12c0.55,0,1,0.45,1,1c0,7-8.04,12.74-14.96,13C24.03,28.99,24.01,28.99,24,28.99z M26.85,16.99l-1.65,9.89
					c5.27-0.75,11.04-4.9,11.73-9.89H26.85z"/>
			</g>
		</g>
		<g>
			<g>
				<path class="st0" d="M60,45c-0.55,0-1-0.45-1-1V16c0-0.55,0.45-1,1-1s1,0.45,1,1v28C61,44.55,60.55,45,60,45z"/>
			</g>
		</g>
		<g>
			<g>
				<path class="st0" d="M60,41c-0.55,0-1-0.45-1-1V16c0-0.55,0.45-1,1-1h8c0.55,0,1,0.45,1,1v16C69,36.96,64.96,41,60,41z M61,17
					v21.93c3.39-0.49,6-3.41,6-6.93V17H61z"/>
			</g>
		</g>
		<g>
			<g>
				<circle class="st0" cx="66" cy="10" r="2"/>
			</g>
		</g>
	</g>
</g>
</svg>
