<?xml version="1.0" encoding="utf-8"?>
<!-- Generator: Adobe Illustrator 26.4.1, SVG Export Plug-In . SVG Version: 6.00 Build 0)  -->
<svg version="1.1" id="레이어_1" xmlns="http://www.w3.org/2000/svg" xmlns:xlink="http://www.w3.org/1999/xlink" x="0px"
	 y="0px" viewBox="0 0 120 120" style="enable-background:new 0 0 120 120;" xml:space="preserve">
<style type="text/css">
	.st0{fill:#3B55E6;stroke:#3B55E6;stroke-width:0.5;stroke-miterlimit:10;}
</style>
<g>
	<g>
		<g>
			<path class="st0" d="M103.54,113H16.96C8.43,113,1.5,106.57,1.5,98.66s6.94-14.34,15.46-14.34h86.58
				c8.53,0,15.46,6.43,15.46,14.34S112.06,113,103.54,113z M16.96,86.23c-7.39,0-13.4,5.58-13.4,12.43c0,6.85,6.01,12.43,13.4,12.43
				h86.58c7.39,0,13.4-5.58,13.4-12.43c0-6.85-6.01-12.43-13.4-12.43H16.96z"/>
		</g>
	</g>
	<g>
		<g>
			<path class="st0" d="M105.6,86.23H14.9c-0.57,0-1.03-0.43-1.03-0.96V66.15c0-23.72,20.81-43.03,46.38-43.03
				s46.38,19.3,46.38,43.03v19.12C106.63,85.8,106.17,86.23,105.6,86.23z M15.93,84.32h88.64V66.15c0-22.67-19.88-41.11-44.32-41.11
				S15.93,43.48,15.93,66.15V84.32z"/>
		</g>
	</g>
	<g>
		<g>
			<path class="st0" d="M60.25,23.12c-0.57,0-1.03-0.43-1.03-0.96c0-4.91,2.63-8.76,7.21-10.58c5.07-2,11.44-1.06,15.15,2.24
				c0.41,0.37,0.42,0.97,0.03,1.35c-0.39,0.38-1.05,0.39-1.46,0.03c-3.14-2.79-8.57-3.57-12.91-1.86c-2.23,0.88-5.96,3.2-5.96,8.82
				C61.28,22.69,60.82,23.12,60.25,23.12z"/>
		</g>
	</g>
	<g>
		<g>
			<path class="st0" d="M60.25,23.12c-0.57,0-1.03-0.43-1.03-0.96c0-5.66-3.78-7.99-6.03-8.87c-4.33-1.7-9.73-0.9-12.84,1.9
				c-0.41,0.37-1.06,0.36-1.46-0.02c-0.4-0.38-0.39-0.98,0.02-1.35c3.67-3.31,10.01-4.28,15.08-2.3c4.63,1.81,7.29,5.69,7.29,10.63
				C61.28,22.69,60.82,23.12,60.25,23.12z"/>
		</g>
	</g>
	<g>
		<g>
			<path class="st0" d="M60.25,21.21c-0.57,0-1.03-0.43-1.03-0.96C59.22,4,73.84,4,80.86,4c0.57,0,1.03,0.43,1.03,0.96
				c0,0.53-0.46,0.96-1.03,0.96c-9.47,0-19.58,1.11-19.58,14.34C61.28,20.78,60.82,21.21,60.25,21.21z"/>
		</g>
	</g>
	<g>
		<g>
			<path class="st0" d="M60.25,21.21c-0.57,0-1.03-0.43-1.03-0.96c0-13.23-10.11-14.34-19.58-14.34c-0.57,0-1.03-0.43-1.03-0.96
				C38.6,4.43,39.06,4,39.63,4c7.03,0,21.65,0,21.65,16.25C61.28,20.78,60.82,21.21,60.25,21.21z"/>
		</g>
	</g>
	<g>
		<g>
			<path class="st0" d="M16.96,105.35c-0.57,0-1.03-0.43-1.03-0.96V92.92c0-0.53,0.46-0.96,1.03-0.96c0.57,0,1.03,0.43,1.03,0.96
				v11.47C17.99,104.92,17.53,105.35,16.96,105.35z"/>
		</g>
	</g>
	<g>
		<g>
			<path class="st0" d="M29.33,105.35c-0.57,0-1.03-0.43-1.03-0.96V92.92c0-0.53,0.46-0.96,1.03-0.96c0.57,0,1.03,0.43,1.03,0.96
				v11.47C30.36,104.92,29.9,105.35,29.33,105.35z"/>
		</g>
	</g>
	<g>
		<g>
			<path class="st0" d="M41.69,105.35c-0.57,0-1.03-0.43-1.03-0.96V92.92c0-0.53,0.46-0.96,1.03-0.96s1.03,0.43,1.03,0.96v11.47
				C42.73,104.92,42.26,105.35,41.69,105.35z"/>
		</g>
	</g>
	<g>
		<g>
			<path class="st0" d="M54.06,105.35c-0.57,0-1.03-0.43-1.03-0.96V92.92c0-0.53,0.46-0.96,1.03-0.96s1.03,0.43,1.03,0.96v11.47
				C55.09,104.92,54.63,105.35,54.06,105.35z"/>
		</g>
	</g>
	<g>
		<g>
			<path class="st0" d="M66.43,105.35c-0.57,0-1.03-0.43-1.03-0.96V92.92c0-0.53,0.46-0.96,1.03-0.96c0.57,0,1.03,0.43,1.03,0.96
				v11.47C67.46,104.92,67,105.35,66.43,105.35z"/>
		</g>
	</g>
	<g>
		<g>
			<path class="st0" d="M78.8,105.35c-0.57,0-1.03-0.43-1.03-0.96V92.92c0-0.53,0.46-0.96,1.03-0.96c0.57,0,1.03,0.43,1.03,0.96
				v11.47C79.83,104.92,79.37,105.35,78.8,105.35z"/>
		</g>
	</g>
	<g>
		<g>
			<path class="st0" d="M91.17,105.35c-0.57,0-1.03-0.43-1.03-0.96V92.92c0-0.53,0.46-0.96,1.03-0.96c0.57,0,1.03,0.43,1.03,0.96
				v11.47C92.2,104.92,91.74,105.35,91.17,105.35z"/>
		</g>
	</g>
	<g>
		<g>
			<path class="st0" d="M103.54,105.35c-0.57,0-1.03-0.43-1.03-0.96V92.92c0-0.53,0.46-0.96,1.03-0.96c0.57,0,1.03,0.43,1.03,0.96
				v11.47C104.57,104.92,104.11,105.35,103.54,105.35z"/>
		</g>
	</g>
	<g>
		<g>
			<path class="st0" d="M97.35,44.16H84.99c-0.57,0-1.03-0.43-1.03-0.96c0-0.53,0.46-0.96,1.03-0.96h12.37
				c0.57,0,1.03,0.43,1.03,0.96C98.39,43.73,97.92,44.16,97.35,44.16z"/>
		</g>
	</g>
	<g>
		<g>
			<path class="st0" d="M101.48,51.81H89.11c-0.57,0-1.03-0.43-1.03-0.96c0-0.53,0.46-0.96,1.03-0.96h12.37
				c0.57,0,1.03,0.43,1.03,0.96C102.51,51.38,102.05,51.81,101.48,51.81z"/>
		</g>
	</g>
	<g>
		<g>
			<path class="st0" d="M103.54,59.46H91.17c-0.57,0-1.03-0.43-1.03-0.96c0-0.53,0.46-0.96,1.03-0.96h12.37
				c0.57,0,1.03,0.43,1.03,0.96C104.57,59.03,104.11,59.46,103.54,59.46z"/>
		</g>
	</g>
	<g>
		<g>
			<path class="st0" d="M105.6,67.11H93.23c-0.57,0-1.03-0.43-1.03-0.96c0-0.53,0.46-0.96,1.03-0.96h12.37
				c0.57,0,1.03,0.43,1.03,0.96C106.63,66.68,106.17,67.11,105.6,67.11z"/>
		</g>
	</g>
	<g>
		<g>
			<path class="st0" d="M105.6,74.75H93.23c-0.57,0-1.03-0.43-1.03-0.96c0-0.53,0.46-0.96,1.03-0.96h12.37
				c0.57,0,1.03,0.43,1.03,0.96C106.63,74.33,106.17,74.75,105.6,74.75z"/>
		</g>
	</g>
	<g>
		<g>
			<path class="st0" d="M35.51,44.16H23.14c-0.57,0-1.03-0.43-1.03-0.96c0-0.53,0.46-0.96,1.03-0.96h12.37
				c0.57,0,1.03,0.43,1.03,0.96C36.54,43.73,36.08,44.16,35.51,44.16z"/>
		</g>
	</g>
	<g>
		<g>
			<path class="st0" d="M31.39,51.81H19.02c-0.57,0-1.03-0.43-1.03-0.96c0-0.53,0.46-0.96,1.03-0.96h12.37
				c0.57,0,1.03,0.43,1.03,0.96C32.42,51.38,31.96,51.81,31.39,51.81z"/>
		</g>
	</g>
	<g>
		<g>
			<path class="st0" d="M29.33,59.46H16.96c-0.57,0-1.03-0.43-1.03-0.96c0-0.53,0.46-0.96,1.03-0.96h12.37
				c0.57,0,1.03,0.43,1.03,0.96C30.36,59.03,29.9,59.46,29.33,59.46z"/>
		</g>
	</g>
	<g>
		<g>
			<path class="st0" d="M27.26,67.11H14.9c-0.57,0-1.03-0.43-1.03-0.96c0-0.53,0.46-0.96,1.03-0.96h12.37
				c0.57,0,1.03,0.43,1.03,0.96C28.29,66.68,27.83,67.11,27.26,67.11z"/>
		</g>
	</g>
	<g>
		<g>
			<path class="st0" d="M27.26,74.75H14.9c-0.57,0-1.03-0.43-1.03-0.96c0-0.53,0.46-0.96,1.03-0.96h12.37
				c0.57,0,1.03,0.43,1.03,0.96C28.29,74.33,27.83,74.75,27.26,74.75z"/>
		</g>
	</g>
	<g>
		<g>
			<path class="st0" d="M60.25,23.12c-0.18,0-0.35-0.04-0.51-0.13c-0.49-0.26-0.66-0.85-0.38-1.31c1.24-1.99,3.24-3.42,5.63-4.01
				c2.39-0.59,4.89-0.29,7.04,0.86c0.49,0.26,0.66,0.85,0.38,1.31c-0.29,0.46-0.92,0.61-1.41,0.35c-1.67-0.9-3.62-1.13-5.47-0.67
				c-1.86,0.46-3.42,1.57-4.38,3.12C60.95,22.95,60.6,23.12,60.25,23.12z"/>
		</g>
	</g>
	<g>
		<g>
			<path class="st0" d="M60.25,23.12c-0.36,0-0.7-0.17-0.89-0.48c-0.96-1.55-2.52-2.66-4.38-3.12c-1.86-0.46-3.8-0.23-5.47,0.67
				c-0.49,0.26-1.12,0.11-1.41-0.35c-0.28-0.46-0.12-1.04,0.38-1.31c2.15-1.15,4.65-1.45,7.04-0.86c2.39,0.59,4.39,2.02,5.63,4.01
				c0.28,0.46,0.12,1.04-0.38,1.31C60.6,23.08,60.42,23.12,60.25,23.12z"/>
		</g>
	</g>
	<g>
		<g>
			<path class="st0" d="M60.25,21.21c-0.57,0-1.03-0.43-1.03-0.96V4.96c0-0.53,0.46-0.96,1.03-0.96c0.57,0,1.03,0.43,1.03,0.96v15.3
				C61.28,20.78,60.82,21.21,60.25,21.21z"/>
		</g>
	</g>
</g>
</svg>
