<?xml version="1.0" encoding="utf-8"?>
<!-- Generator: Adobe Illustrator 26.4.1, SVG Export Plug-In . SVG Version: 6.00 Build 0)  -->
<svg version="1.1" id="레이어_1" xmlns="http://www.w3.org/2000/svg" xmlns:xlink="http://www.w3.org/1999/xlink" x="0px"
	 y="0px" viewBox="0 0 120 120" style="enable-background:new 0 0 120 120;" xml:space="preserve">
<style type="text/css">
	.st0{fill:#3B55E6;}
</style>
<g>
	<g>
		<g>
			<path class="st0" d="M16,107H4c-0.29,0-0.56-0.13-0.75-0.34c-0.19-0.22-0.28-0.51-0.24-0.79l12-86c0.06-0.46,0.43-0.81,0.89-0.86
				c0.45-0.05,0.89,0.23,1.04,0.66l12,34c0.06,0.18,0.07,0.37,0.03,0.56l-12,52C16.87,106.68,16.47,107,16,107z M5.15,105H15.2
				l11.76-50.94L16.42,24.2L5.15,105z"/>
		</g>
	</g>
	<g>
		<g>
			<path class="st0" d="M60,117H28c-0.55,0-1-0.45-1-1V54.17L15.06,20.33c-0.09-0.26-0.07-0.55,0.06-0.8
				c0.13-0.25,0.35-0.43,0.62-0.5l24.25-6.61c0.36-0.1,0.76,0.02,1.01,0.3c0.25,0.28,0.32,0.68,0.18,1.04l-3.58,8.96l22.25-3.71
				c0.29-0.05,0.59,0.03,0.81,0.22C60.87,19.43,61,19.71,61,20v96C61,116.55,60.55,117,60,117z M29,115h30V21.18l-22.84,3.81
				c-0.35,0.06-0.72-0.08-0.94-0.36c-0.23-0.28-0.28-0.66-0.15-1l3.5-8.75l-21.27,5.8l11.64,32.99C28.98,53.77,29,53.89,29,54V115z"
				/>
		</g>
	</g>
	<g>
		<g>
			<path class="st0" d="M36,25c-0.3,0-0.59-0.13-0.78-0.37c-0.23-0.28-0.28-0.66-0.15-1l8-20c0.12-0.31,0.4-0.54,0.73-0.61
				c0.33-0.07,0.67,0.04,0.91,0.27l16,16c0.26,0.26,0.36,0.66,0.25,1.01c-0.11,0.36-0.42,0.62-0.79,0.68l-24,4
				C36.11,25,36.05,25,36,25z M44.37,5.78l-6.78,16.94l20.33-3.39L44.37,5.78z"/>
		</g>
	</g>
	<g>
		<g>
			<path class="st0" d="M116,107h-12c-0.47,0-0.87-0.33-0.98-0.78l-12-54c-0.04-0.19-0.03-0.39,0.04-0.57l12-32
				c0.16-0.43,0.61-0.69,1.05-0.64c0.46,0.05,0.82,0.4,0.88,0.86l12,86c0.04,0.29-0.05,0.58-0.24,0.79
				C116.56,106.87,116.29,107,116,107z M104.8,105h10.05l-11.3-80.96L93.04,52.07L104.8,105z"/>
		</g>
	</g>
	<g>
		<g>
			<path class="st0" d="M92,117H60c-0.55,0-1-0.45-1-1V20c0-0.29,0.13-0.57,0.35-0.76c0.22-0.19,0.52-0.27,0.81-0.22l22.25,3.71
				l-3.58-8.96c-0.14-0.35-0.07-0.75,0.18-1.04c0.25-0.28,0.64-0.4,1.01-0.3l24.25,6.61c0.27,0.07,0.5,0.26,0.63,0.51
				c0.13,0.25,0.14,0.54,0.05,0.81L93,52.18V116C93,116.55,92.55,117,92,117z M61,115h30V52c0-0.12,0.02-0.24,0.06-0.35l11.62-30.97
				l-21.25-5.8l3.5,8.75c0.13,0.34,0.08,0.72-0.15,1c-0.23,0.28-0.59,0.42-0.94,0.36L61,21.18V115z"/>
		</g>
	</g>
	<g>
		<g>
			<path class="st0" d="M60,21c-0.26,0-0.51-0.1-0.71-0.29l-16-16c-0.29-0.29-0.37-0.72-0.22-1.09C43.23,3.24,43.6,3,44,3h32
				c0.4,0,0.77,0.24,0.92,0.62c0.16,0.37,0.07,0.8-0.22,1.09l-16,16C60.51,20.9,60.26,21,60,21z M46.41,5L60,18.59L73.59,5H46.41z"
				/>
		</g>
	</g>
	<g>
		<g>
			<path class="st0" d="M44,87H28c-0.55,0-1-0.45-1-1c0-0.55,0.45-1,1-1h16c0.55,0,1,0.45,1,1C45,86.55,44.55,87,44,87z"/>
		</g>
	</g>
	<g>
		<g>
			<path class="st0" d="M92,87H76c-0.55,0-1-0.45-1-1c0-0.55,0.45-1,1-1h16c0.55,0,1,0.45,1,1C93,86.55,92.55,87,92,87z"/>
		</g>
	</g>
	<g>
		<g>
			<path class="st0" d="M84,25c-0.05,0-0.11,0-0.16-0.01l-24-4c-0.37-0.06-0.67-0.32-0.79-0.68c-0.11-0.36-0.02-0.75,0.25-1.01
				l16-16c0.24-0.24,0.57-0.34,0.91-0.27c0.33,0.07,0.6,0.3,0.73,0.61l8,20c0.13,0.34,0.08,0.72-0.15,1C84.59,24.87,84.3,25,84,25z
				 M62.08,19.33l20.33,3.39L75.63,5.78L62.08,19.33z"/>
		</g>
	</g>
</g>
</svg>
