<?xml version="1.0" encoding="utf-8"?>
<!-- Generator: Adobe Illustrator 26.4.1, SVG Export Plug-In . SVG Version: 6.00 Build 0)  -->
<svg version="1.1" id="레이어_1" xmlns="http://www.w3.org/2000/svg" xmlns:xlink="http://www.w3.org/1999/xlink" x="0px"
	 y="0px" viewBox="0 0 120 120" style="enable-background:new 0 0 120 120;" xml:space="preserve">
<style type="text/css">
	.st0{fill:#3B55E6;}
</style>
<g>
	<g>
		<g>
			<path class="st0" d="M24,57H4c-0.55,0-1-0.45-1-1v-8c0-0.55,0.45-1,1-1h20c0.55,0,1,0.45,1,1v8C25,56.55,24.55,57,24,57z M5,55
				h18v-6H5V55z"/>
		</g>
	</g>
	<g>
		<g>
			<path class="st0" d="M116,57H96c-0.55,0-1-0.45-1-1v-8c0-0.55,0.45-1,1-1h20c0.55,0,1,0.45,1,1v8C117,56.55,116.55,57,116,57z
				 M97,55h18v-6H97V55z"/>
		</g>
	</g>
	<g>
		<g>
			<path class="st0" d="M64,33c-0.04,0-0.07,0-0.11-0.01c-0.34-0.04-0.64-0.24-0.79-0.55l-4-8c-0.17-0.35-0.13-0.77,0.11-1.07l16-20
				c0.21-0.27,0.55-0.4,0.89-0.37c0.34,0.04,0.64,0.24,0.79,0.55l4,8c0.17,0.35,0.13,0.77-0.11,1.07l-16,20
				C64.59,32.86,64.3,33,64,33z M61.18,24.12l3.01,6.03l14.62-18.28L75.8,5.85L61.18,24.12z"/>
		</g>
	</g>
	<g>
		<g>
			<path class="st0" d="M96,117H24c-0.55,0-1-0.45-1-1V49H4c-0.55,0-1-0.45-1-1c0-20.4,16.6-37,37-37c0.3,0,0.59,0.14,0.78,0.38
				L55.8,30.15l3.3-6.6c0.34-0.68,1.45-0.68,1.79,0l3.3,6.6l15.02-18.78C79.41,11.14,79.7,11,80,11c20.4,0,37,16.6,37,37
				c0,0.55-0.45,1-1,1H97v67C97,116.55,96.55,117,96,117z M25,115h70V48c0-0.55,0.45-1,1-1h18.99c-0.53-18.68-15.76-33.75-34.51-34
				l-15.7,19.62c-0.21,0.27-0.55,0.4-0.89,0.37c-0.34-0.04-0.64-0.24-0.79-0.55L60,26.24l-3.11,6.21c-0.15,0.31-0.45,0.51-0.79,0.55
				c-0.34,0.03-0.67-0.1-0.89-0.37L39.52,13C20.78,13.25,5.54,28.32,5.01,47H24c0.55,0,1,0.45,1,1V115z"/>
		</g>
	</g>
	<g>
		<g>
			<path class="st0" d="M60,25c-0.3,0-0.59-0.14-0.78-0.38l-16-20c-0.24-0.3-0.29-0.71-0.12-1.06C43.27,3.22,43.62,3,44,3h32
				c0.38,0,0.73,0.22,0.9,0.57c0.17,0.35,0.12,0.76-0.12,1.06l-16,20C60.59,24.86,60.3,25,60,25z M46.08,5L60,22.4L73.92,5H46.08z"
				/>
		</g>
	</g>
	<g>
		<g>
			<path class="st0" d="M48.25,43h-16c-0.55,0-1-0.45-1-1c0-0.55,0.45-1,1-1h16c0.55,0,1,0.45,1,1C49.25,42.55,48.8,43,48.25,43z"/>
		</g>
	</g>
	<g>
		<g>
			<path class="st0" d="M96,49c-0.55,0-1-0.45-1-1v-8c0-0.55,0.45-1,1-1s1,0.45,1,1v8C97,48.55,96.55,49,96,49z"/>
		</g>
	</g>
	<g>
		<g>
			<path class="st0" d="M24,49c-0.55,0-1-0.45-1-1v-8c0-0.55,0.45-1,1-1s1,0.45,1,1v8C25,48.55,24.55,49,24,49z"/>
		</g>
	</g>
	<g>
		<g>
			<path class="st0" d="M64,117h-8c-0.55,0-1-0.45-1-1V32c0-0.16,0.04-0.31,0.11-0.45l4-8c0.34-0.68,1.45-0.68,1.79,0l4,8
				C64.96,31.69,65,31.84,65,32v84C65,116.55,64.55,117,64,117z M57,115h6V32.24l-3-6l-3,6V115z"/>
		</g>
	</g>
	<g>
		<g>
			<path class="st0" d="M56,33c-0.3,0-0.59-0.14-0.78-0.38l-16-20c-0.24-0.3-0.29-0.72-0.11-1.07l4-8c0.15-0.31,0.45-0.51,0.79-0.55
				c0.34-0.03,0.67,0.1,0.89,0.37l16,20c0.24,0.3,0.29,0.72,0.11,1.07l-4,8c-0.15,0.31-0.45,0.51-0.79,0.55C56.07,33,56.04,33,56,33
				z M41.18,11.88L55.8,30.15l3.01-6.03L44.2,5.85L41.18,11.88z"/>
		</g>
	</g>
</g>
</svg>
