<?xml version="1.0" encoding="utf-8"?>
<!-- Generator: Adobe Illustrator 26.4.1, SVG Export Plug-In . SVG Version: 6.00 Build 0)  -->
<svg version="1.1" id="레이어_1" xmlns="http://www.w3.org/2000/svg" xmlns:xlink="http://www.w3.org/1999/xlink" x="0px"
	 y="0px" viewBox="0 0 120 120" style="enable-background:new 0 0 120 120;" xml:space="preserve">
<style type="text/css">
	.st0{fill:#3B55E6;}
</style>
<g>
	<g>
		<g>
			<g>
				<path class="st0" d="M104,37H16c-0.55,0-1-0.45-1-1V20c0-0.55,0.45-1,1-1h88c0.55,0,1,0.45,1,1v16C105,36.55,104.55,37,104,37z
					 M17,35h86V21H17V35z"/>
			</g>
		</g>
		<g>
			<path class="st0" d="M111,49.9c-0.01-0.1-0.04-0.2-0.08-0.29l-6-14C104.76,35.24,104.4,35,104,35H16c-0.4,0-0.76,0.24-0.92,0.61
				l-6,14C9.04,49.7,9.01,49.8,9,49.9l-6,50c-0.03,0.28,0.06,0.56,0.25,0.77C3.45,100.88,3.72,101,4,101h46h20h46
				c0.28,0,0.55-0.12,0.74-0.33c0.19-0.21,0.28-0.49,0.25-0.77L111,49.9z M70.85,99H49.15H5.11l5.87-48.75L16.66,37h86.68
				l5.68,13.25L114.89,99H70.85z"/>
		</g>
	</g>
	<g>
		<polygon class="st0" points="9.04,65.39 7.8,63.82 17.55,56.09 24.8,35.66 26.68,36.33 19.25,57.3 		"/>
		<polygon class="st0" points="110.96,65.39 100.75,57.3 93.32,36.33 95.2,35.66 102.45,56.09 112.2,63.82 		"/>
	</g>
</g>
</svg>
