<?xml version="1.0" encoding="utf-8"?>
<!-- Generator: Adobe Illustrator 26.4.1, SVG Export Plug-In . SVG Version: 6.00 Build 0)  -->
<svg version="1.1" id="레이어_1" xmlns="http://www.w3.org/2000/svg" xmlns:xlink="http://www.w3.org/1999/xlink" x="0px"
	 y="0px" viewBox="0 0 120 120" style="enable-background:new 0 0 120 120;" xml:space="preserve">
<style type="text/css">
	.st0{fill:#3B55E6;}
</style>
<g>
	<g>
		<g>
			<path class="st0" d="M96.5,117h-76c-0.55,0-1-0.45-1-1V44c0-0.23,0.08-0.45,0.22-0.62c5.02-6.27,7.78-14.15,7.78-22.18V4
				c0-0.55,0.45-1,1-1h17.36c0.39,0,0.74,0.22,0.9,0.57C48.93,8.15,53.43,11,58.5,11s9.57-2.85,11.74-7.43
				C70.4,3.22,70.75,3,71.14,3H88.5c0.55,0,1,0.45,1,1v17.19c0,8.03,2.76,15.91,7.78,22.18c0.14,0.18,0.22,0.4,0.22,0.62v72
				C97.5,116.55,97.05,117,96.5,117z M21.5,115h74V44.35c-5.16-6.58-8-14.79-8-23.15V5H71.76c-2.59,4.95-7.62,8-13.26,8
				S47.83,9.95,45.24,5H29.5v16.19c0,8.37-2.84,16.58-8,23.15V115z"/>
		</g>
	</g>
	<g>
		<g>
			<path class="st0" d="M58.5,29c-8.27,0-15-6.73-15-15V4c0-0.55,0.45-1,1-1h1.36c0.39,0,0.74,0.22,0.9,0.57
				C48.93,8.15,53.43,11,58.5,11s9.57-2.85,11.74-7.43C70.4,3.22,70.75,3,71.14,3h1.36c0.55,0,1,0.45,1,1v10
				C73.5,22.27,66.77,29,58.5,29z M45.5,5.47V14c0,7.17,5.83,13,13,13s13-5.83,13-13V5.47c-2.66,4.67-7.54,7.53-13,7.53
				S48.16,10.15,45.5,5.47z"/>
		</g>
	</g>
</g>
</svg>
