<?xml version="1.0" encoding="utf-8"?>
<!-- Generator: Adobe Illustrator 26.4.1, SVG Export Plug-In . SVG Version: 6.00 Build 0)  -->
<svg version="1.1" id="레이어_1" xmlns="http://www.w3.org/2000/svg" xmlns:xlink="http://www.w3.org/1999/xlink" x="0px"
	 y="0px" viewBox="0 0 120 120" style="enable-background:new 0 0 120 120;" xml:space="preserve">
<style type="text/css">
	.st0{fill:#3B55E6;}
</style>
<g>
	<g>
		<g>
			<path class="st0" d="M108,97H90c-0.55,0-1-0.45-1-1V30c0-0.55,0.45-1,1-1s1,0.45,1,1v65h16V32c0-12.68-10.32-23-23-23h-5.21
				c-1.51,4.62-9.31,8-18.79,8s-17.28-3.38-18.79-8H36C23.32,9,13,19.32,13,32v63h16V30c0-0.55,0.45-1,1-1s1,0.45,1,1v66
				c0,0.55-0.45,1-1,1H12c-0.55,0-1-0.45-1-1V32C11,18.21,22.21,7,36,7h6c0.49,0,0.91,0.36,0.99,0.85C43.59,11.79,51.23,15,60,15
				s16.41-3.21,17.01-7.15C77.09,7.36,77.51,7,78,7h6c13.79,0,25,11.21,25,25v64C109,96.55,108.55,97,108,97z"/>
		</g>
	</g>
	<g>
		<g>
			<path class="st0" d="M108,109H90c-0.55,0-1-0.45-1-1V96c0-0.55,0.45-1,1-1h18c0.55,0,1,0.45,1,1v12
				C109,108.55,108.55,109,108,109z M91,107h16V97H91V107z"/>
		</g>
	</g>
	<g>
		<g>
			<path class="st0" d="M30,109H12c-0.55,0-1-0.45-1-1V96c0-0.55,0.45-1,1-1h18c0.55,0,1,0.45,1,1v12C31,108.55,30.55,109,30,109z
				 M13,107h16V97H13V107z"/>
		</g>
	</g>
	<g>
		<g>
			<path class="st0" d="M60,29c-10.48,0-19-8.52-19-19V8c0-0.52,0.4-0.96,0.92-1c0.51-0.04,0.99,0.33,1.06,0.85
				C43.59,11.79,51.23,15,60,15s16.41-3.21,17.01-7.15c0.08-0.52,0.56-0.89,1.06-0.85C78.6,7.04,79,7.48,79,8v2
				C79,20.48,70.48,29,60,29z M43.1,11.87C44.04,20.37,51.26,27,60,27s15.96-6.63,16.9-15.13C73.73,14.95,67.37,17,60,17
				S46.27,14.95,43.1,11.87z"/>
		</g>
	</g>
	<g>
		<g>
			<path class="st0" d="M90,113H30c-0.55,0-1-0.45-1-1v-12c0-0.55,0.45-1,1-1h60c0.55,0,1,0.45,1,1v12C91,112.55,90.55,113,90,113z
				 M31,111h58v-10H31V111z"/>
		</g>
	</g>
	<g>
		<g>
			<path class="st0" d="M42,113c-0.55,0-1-0.45-1-1v-12c0-0.55,0.45-1,1-1s1,0.45,1,1v12C43,112.55,42.55,113,42,113z"/>
		</g>
	</g>
	<g>
		<g>
			<path class="st0" d="M36,113c-0.55,0-1-0.45-1-1v-12c0-0.55,0.45-1,1-1s1,0.45,1,1v12C37,112.55,36.55,113,36,113z"/>
		</g>
	</g>
	<g>
		<g>
			<path class="st0" d="M48,113c-0.55,0-1-0.45-1-1v-12c0-0.55,0.45-1,1-1s1,0.45,1,1v12C49,112.55,48.55,113,48,113z"/>
		</g>
	</g>
	<g>
		<g>
			<path class="st0" d="M54,113c-0.55,0-1-0.45-1-1v-12c0-0.55,0.45-1,1-1s1,0.45,1,1v12C55,112.55,54.55,113,54,113z"/>
		</g>
	</g>
	<g>
		<g>
			<path class="st0" d="M60,113c-0.55,0-1-0.45-1-1v-12c0-0.55,0.45-1,1-1s1,0.45,1,1v12C61,112.55,60.55,113,60,113z"/>
		</g>
	</g>
	<g>
		<g>
			<path class="st0" d="M66,113c-0.55,0-1-0.45-1-1v-12c0-0.55,0.45-1,1-1s1,0.45,1,1v12C67,112.55,66.55,113,66,113z"/>
		</g>
	</g>
	<g>
		<g>
			<path class="st0" d="M72,113c-0.55,0-1-0.45-1-1v-12c0-0.55,0.45-1,1-1s1,0.45,1,1v12C73,112.55,72.55,113,72,113z"/>
		</g>
	</g>
	<g>
		<g>
			<path class="st0" d="M78,113c-0.55,0-1-0.45-1-1v-12c0-0.55,0.45-1,1-1s1,0.45,1,1v12C79,112.55,78.55,113,78,113z"/>
		</g>
	</g>
	<g>
		<g>
			<path class="st0" d="M84,113c-0.55,0-1-0.45-1-1v-12c0-0.55,0.45-1,1-1s1,0.45,1,1v12C85,112.55,84.55,113,84,113z"/>
		</g>
	</g>
	<g>
		<g>
			<path class="st0" d="M96,109c-0.55,0-1-0.45-1-1V96c0-0.55,0.45-1,1-1s1,0.45,1,1v12C97,108.55,96.55,109,96,109z"/>
		</g>
	</g>
	<g>
		<g>
			<path class="st0" d="M102,109c-0.55,0-1-0.45-1-1V96c0-0.55,0.45-1,1-1s1,0.45,1,1v12C103,108.55,102.55,109,102,109z"/>
		</g>
	</g>
	<g>
		<g>
			<path class="st0" d="M18,109c-0.55,0-1-0.45-1-1V96c0-0.55,0.45-1,1-1s1,0.45,1,1v12C19,108.55,18.55,109,18,109z"/>
		</g>
	</g>
	<g>
		<g>
			<path class="st0" d="M24,109c-0.55,0-1-0.45-1-1V96c0-0.55,0.45-1,1-1s1,0.45,1,1v12C25,108.55,24.55,109,24,109z"/>
		</g>
	</g>
	<g>
		<g>
			<path class="st0" d="M90,101H30c-0.55,0-1-0.45-1-1V30c0-0.55,0.45-1,1-1s1,0.45,1,1v69h58V30c0-0.55,0.45-1,1-1s1,0.45,1,1v70
				C91,100.55,90.55,101,90,101z"/>
		</g>
	</g>
</g>
</svg>
