<?xml version="1.0" encoding="utf-8"?>
<!-- Generator: Adobe Illustrator 26.4.1, SVG Export Plug-In . SVG Version: 6.00 Build 0)  -->
<svg version="1.1" id="레이어_1" xmlns="http://www.w3.org/2000/svg" xmlns:xlink="http://www.w3.org/1999/xlink" x="0px"
	 y="0px" viewBox="0 0 120 120" style="enable-background:new 0 0 120 120;" xml:space="preserve">
<style type="text/css">
	.st0{fill:#3B55E6;}
</style>
<g>
	<path class="st0" d="M90.61,110.67H29.39c-0.55,0-1-0.45-1-1v-7.34c0-0.55,0.45-1,1-1h61.23c0.55,0,1,0.45,1,1v7.34
		C91.61,110.23,91.17,110.67,90.61,110.67z M30.39,108.67h59.23v-5.34H30.39V108.67z"/>
	<g>
		<g>
			<g>
				<path class="st0" d="M28.96,40.03c0.03,0.1,0.04,0.19,0.04,0.29v54c0,0.55-0.45,1-1,1H8.88c-1.5,0-2.91-0.67-3.87-1.83
					s-1.33-2.68-1.04-4.15l15.04-75.22c0.09-0.45,0.47-0.78,0.93-0.8c0.48-0.03,0.87,0.27,1.01,0.7 M20.21,18.4L5.94,89.74
					c-0.18,0.88,0.05,1.79,0.62,2.49c0.57,0.7,1.42,1.1,2.32,1.1H27V40.48"/>
			</g>
		</g>
		<g>
			<g>
				<path class="st0" d="M111.12,95.33H92c-0.55,0-1-0.45-1-1v-54c0-0.1,0.01-0.2,0.04-0.29l8-26c0.13-0.44,0.51-0.74,1.01-0.7
					c0.46,0.02,0.84,0.35,0.93,0.8l15.04,75.22c0.29,1.47-0.08,2.99-1.04,4.15C114.03,94.66,112.62,95.33,111.12,95.33z M93,93.33
					h18.12c0.9,0,1.75-0.4,2.32-1.1c0.57-0.7,0.8-1.61,0.62-2.49L99.79,18.4L93,40.48V93.33z"/>
			</g>
		</g>
		<g>
			<g>
				<path class="st0" d="M28,103.33H8c-0.31,0-0.6-0.14-0.79-0.38c-0.19-0.24-0.26-0.56-0.18-0.86l2-8
					c0.11-0.44,0.51-0.76,0.97-0.76h18c0.55,0,1,0.45,1,1v8C29,102.88,28.55,103.33,28,103.33z M9.28,101.33H27v-6H10.78
					L9.28,101.33z"/>
			</g>
		</g>
		<g>
			<g>
				<path class="st0" d="M112,103.33H92c-0.55,0-1-0.45-1-1v-8c0-0.55,0.45-1,1-1h18c0.46,0,0.86,0.31,0.97,0.76l2,8
					c0.08,0.3,0.01,0.62-0.18,0.86C112.6,103.19,112.31,103.33,112,103.33z M93,101.33h17.72l-1.5-6H93V101.33z"/>
			</g>
		</g>
		<g>
			<g>
				<path class="st0" d="M27,102.33c0-0.55,0.45-1,1-1h64c0.55,0,1,0.45,1,1 M91,103.33H29"/>
			</g>
		</g>
		<g>
			<g>
				<path class="st0" d="M19.04,14.62c-0.15-0.5,0.1-1.03,0.59-1.22l10-4c0.27-0.11,0.58-0.09,0.84,0.05L42,15.59
					c11.25,6,24.76,6,36.01,0l11.53-6.15c0.26-0.14,0.57-0.15,0.84-0.05l10,4c0.48,0.19,0.74,0.73,0.58,1.22L93,40.48v61.85
					c0,0.55-0.45,1-1,1H28c-0.55,0-1-0.45-1-1V40.48 M28.96,40.03c0.03,0.1,0.04,0.19,0.04,0.29v61h62v-61
					c0.01-0.1,0.03-0.19,0.04-0.29l7.73-25.12l-8.71-3.49l-11.59,6.18c-11.55,6.16-25.4,6.16-36.95,0l-11.59-6.18l-8.71,3.49"/>
			</g>
		</g>
	</g>
</g>
</svg>
