<?xml version="1.0" encoding="utf-8"?>
<!-- Generator: Adobe Illustrator 26.4.1, SVG Export Plug-In . SVG Version: 6.00 Build 0)  -->
<svg version="1.1" id="레이어_1" xmlns="http://www.w3.org/2000/svg" xmlns:xlink="http://www.w3.org/1999/xlink" x="0px"
	 y="0px" viewBox="0 0 120 120" style="enable-background:new 0 0 120 120;" xml:space="preserve">
<style type="text/css">
	.st0{fill:#3B55E6;}
</style>
<g>
	<g>
		<path class="st0" d="M66.94,47.07c-2.08,0-3.77-1.69-3.77-3.77c0-2.08,1.69-3.77,3.77-3.77c2.08,0,3.77,1.69,3.77,3.77
			C70.71,45.38,69.02,47.07,66.94,47.07z M66.94,41.52c-0.98,0-1.77,0.8-1.77,1.77s0.8,1.77,1.77,1.77s1.77-0.8,1.77-1.77
			S67.92,41.52,66.94,41.52z"/>
		<path class="st0" d="M66.94,68.75c-2.08,0-3.77-1.69-3.77-3.77c0-2.08,1.69-3.77,3.77-3.77c2.08,0,3.77,1.69,3.77,3.77
			C70.71,67.06,69.02,68.75,66.94,68.75z M66.94,63.2c-0.98,0-1.77,0.8-1.77,1.77s0.8,1.77,1.77,1.77s1.77-0.8,1.77-1.77
			S67.92,63.2,66.94,63.2z"/>
		<path class="st0" d="M66.94,90.43c-2.08,0-3.77-1.69-3.77-3.77c0-2.08,1.69-3.77,3.77-3.77c2.08,0,3.77,1.69,3.77,3.77
			C70.71,88.74,69.02,90.43,66.94,90.43z M66.94,84.88c-0.98,0-1.77,0.8-1.77,1.77s0.8,1.77,1.77,1.77s1.77-0.8,1.77-1.77
			S67.92,84.88,66.94,84.88z"/>
	</g>
	<g>
		<g>
			<path class="st0" d="M28.96,43.71C28.99,43.8,29,43.9,29,44v54c0,0.55-0.45,1-1,1H8.88c-1.5,0-2.91-0.67-3.87-1.83
				c-0.95-1.16-1.33-2.68-1.04-4.15L19.02,17.8c0.09-0.45,0.47-0.78,0.93-0.8c0.48-0.03,0.87,0.27,1.01,0.7 M20.21,22.07L5.94,93.41
				C5.76,94.3,5.99,95.2,6.56,95.9C7.13,96.6,7.98,97,8.88,97H27V44.15"/>
		</g>
	</g>
	<g>
		<g>
			<path class="st0" d="M111.12,99H92c-0.55,0-1-0.45-1-1V44c0-0.1,0.01-0.2,0.04-0.29l8-26c0.13-0.44,0.51-0.74,1.01-0.7
				c0.46,0.02,0.84,0.35,0.93,0.8l15.04,75.22c0.29,1.47-0.08,2.99-1.04,4.15C114.03,98.33,112.62,99,111.12,99z M93,97h18.12
				c0.9,0,1.75-0.4,2.32-1.1c0.57-0.7,0.8-1.61,0.62-2.49L99.79,22.07L93,44.15V97z"/>
		</g>
	</g>
	<g>
		<g>
			<path class="st0" d="M28,107H8c-0.31,0-0.6-0.14-0.79-0.38c-0.19-0.24-0.26-0.56-0.18-0.86l2-8C9.14,97.31,9.54,97,10,97h18
				c0.55,0,1,0.45,1,1v8C29,106.55,28.55,107,28,107z M9.28,105H27v-6H10.78L9.28,105z"/>
		</g>
	</g>
	<g>
		<g>
			<path class="st0" d="M112,107H92c-0.55,0-1-0.45-1-1v-8c0-0.55,0.45-1,1-1h18c0.46,0,0.86,0.31,0.97,0.76l2,8
				c0.08,0.3,0.01,0.62-0.18,0.86C112.6,106.86,112.31,107,112,107z M93,105h17.72l-1.5-6H93V105z"/>
		</g>
	</g>
	<g>
		<g>
			<path class="st0" d="M27,106c0-0.55,0.45-1,1-1h64c0.55,0,1,0.45,1,1 M91,107H29"/>
		</g>
	</g>
	<g>
		<g>
			<path class="st0" d="M60,105.5c-0.55,0-1-0.45-1-1V31c0-0.55,0.45-1,1-1s1,0.45,1,1v73.5C61,105.05,60.55,105.5,60,105.5z"/>
		</g>
	</g>
	<g>
		<g>
			<path class="st0" d="M19.04,18.29c-0.15-0.5,0.1-1.03,0.59-1.22l10-4c0.27-0.11,0.58-0.09,0.84,0.05L60,28.87l29.53-15.75
				c0.26-0.14,0.57-0.15,0.84-0.05l10,4c0.48,0.19,0.74,0.73,0.58,1.22L93,44.15V106c0,0.55-0.45,1-1,1H28c-0.55,0-1-0.45-1-1V44.15
				 M28.96,43.71C28.99,43.8,29,43.9,29,44v61h62V44c0-0.1,0.01-0.2,0.04-0.29l7.73-25.12l-8.71-3.49L60.47,30.88
				c-0.29,0.16-0.65,0.16-0.94,0L29.94,15.1l-8.71,3.49"/>
		</g>
	</g>
</g>
</svg>
